<svg width="113" height="30" viewBox="0 0 113 30" fill="none" xmlns="http://www.w3.org/2000/svg">
<path d="M33.2477 1.08714C26.7458 1.13363 21.4274 8.36003 21.4274 14.6631C21.4274 21.2961 25.326 29.3872 33.2477 29.361C41.1695 29.3347 45.2811 20.6239 45.2811 14.6631C45.2811 8.07898 39.7497 1.04066 33.2477 1.08714ZM33.2477 1.33437C38.6896 1.33437 40.1577 7.3445 40.1577 14.6631C40.1577 24.3199 38.3868 29.0841 33.2477 29.075C28.1087 29.0659 26.4369 25.1666 26.4369 14.6631C26.4369 8.0835 27.8059 1.33437 33.2477 1.33437Z" fill="black"/>
<path d="M47.428 14.8411C47.3989 7.6692 53.1389 1.31625 57.998 1.00105C59.7531 0.876701 62.0092 1.68044 63.3264 2.253C64.2828 2.66876 66.2352 2.06696 66.5819 0.962891H66.771V10.7324H66.5819C66.5819 10.3159 64.7726 1.24667 57.998 1.24667C52.994 1.24667 52.5106 10.0455 52.5106 14.8411C52.5106 19.6367 52.6563 29.1304 58.4958 29.1304C61.3246 29.1304 63.4184 27.8927 63.9613 25.389V17.776H61.5869V17.4517H70.7905V17.776H68.5204V28.9061H68.3356C68.3356 28.9061 67.9666 27.3002 66.0939 27.3056C63.7004 27.3124 61.4432 29.3919 58.6916 29.3665C51.4148 29.2996 47.4572 22.0131 47.428 14.8411Z" fill="black"/>
<path d="M3.57703 2.04918H0.711304V1.72705H10.7501V2.04918H8.23161L15.4046 21.5287C17.6476 14.6232 19.3852 9.51859 21.7236 2.04918H19.2325V1.72705H24.5331V2.04918H22.1192L13.4012 29.2269L3.57703 2.04918Z" fill="black"/>
<path d="M72.196 22.573L72.1506 2.01786H69.4229V1.70996H79.4724V2.01786H76.7463L76.8068 24.5555C77.4103 27.1363 78.4833 29.0945 82.1491 29.1236C85.8148 29.1528 88.3069 26.9551 89.2331 23.9517V2.01786H86.1127L86.1126 1.71903H111.653L111.706 11.5863H111.46C110.987 5.21539 108.528 2.80763 104.229 2.1052C102.75 1.86349 101.198 2.04267 99.2358 2.02742V14.6207C100.944 14.7527 102.764 14.6447 103.991 13.5913C105.106 12.6335 105.421 10.4203 105.503 9.52123H105.719V20.4861H105.485C105.418 20.4861 105.328 17.7345 103.991 16.429C102.644 15.115 100.93 14.792 99.2358 15.105V28.5574C101.629 28.5574 103.537 28.7601 105.193 28.306C110.229 26.9254 112.001 22.677 111.988 18.4161H112.268V28.8759H92.2349V28.5574H94.5V2.01786H89.606V23.9517C89.0513 26.0504 87.024 29.5223 81.8284 29.4986C76.9976 29.4766 72.2064 27.2987 72.196 22.573Z" fill="black"/>
</svg>
